<?xml version="1.0" encoding="utf-8"?>
<!-- Generator: Adobe Illustrator 26.3.1, SVG Export Plug-In . SVG Version: 6.00 Build 0)  -->
<svg version="1.1" id="a" xmlns="http://www.w3.org/2000/svg" xmlns:xlink="http://www.w3.org/1999/xlink" x="0px" y="0px"
	 viewBox="0 0 64.5 65.3" style="enable-background:new 0 0 64.5 65.3;" xml:space="preserve">
<style type="text/css">
	.st0{fill:#858586;}
	.st1{fill:#4275BA;}
</style>
<g>
	<rect x="46.2" y="30.2" transform="matrix(0.8739 -0.486 0.486 0.8739 -16.5949 28.5323)" class="st0" width="1" height="32"/>
	<rect x="48.8" y="26.4" transform="matrix(0.5261 -0.8504 0.8504 0.5261 -9.4198 60.2062)" class="st0" width="1" height="24.3"/>
	<rect x="37" y="25" transform="matrix(0.8376 -0.5462 0.5462 0.8376 -5.9116 31.0508)" class="st0" width="24.5" height="1"/>
	<rect x="6.9" y="44.9" transform="matrix(0.7091 -0.7051 0.7051 0.7091 -24.5109 31.3307)" class="st0" width="37.7" height="1"/>
	<rect x="30.6" y="18.1" transform="matrix(0.4476 -0.8942 0.8942 0.4476 8.6399 51.2163)" class="st0" width="30.3" height="1"/>
	<rect x="31.8" y="3.6" transform="matrix(0.8971 -0.4418 0.4418 0.8971 -4.8872 16.1807)" class="st0" width="1" height="30"/>
	<rect x="28.6" y="13.2" transform="matrix(0.5723 -0.8201 0.8201 0.5723 -8.2524 34.6465)" class="st0" width="1" height="24"/>
	<rect x="21.6" y="10.8" transform="matrix(0.2219 -0.9751 0.9751 0.2219 -10.3535 43.4932)" class="st0" width="1" height="34.9"/>
</g>
<g>
	<circle class="st1" cx="38.8" cy="32.3" r="6"/>
	<circle class="st1" cx="12.3" cy="58.6" r="3.7"/>
	<circle class="st1" cx="5" cy="24.4" r="3.7"/>
	<circle class="st1" cx="19.2" cy="18.5" r="3.7"/>
	<circle class="st1" cx="25.6" cy="5.1" r="3.7"/>
	<circle class="st1" cx="52.5" cy="5" r="3.7"/>
	<circle class="st1" cx="59.5" cy="18.6" r="3.7"/>
	<circle class="st1" cx="59.5" cy="44.9" r="3.7"/>
	<circle class="st1" cx="54.5" cy="60.3" r="3.7"/>
</g>
</svg>
