<?xml version="1.0" encoding="utf-8"?>
<!-- Generator: Adobe Illustrator 25.0.1, SVG Export Plug-In . SVG Version: 6.00 Build 0)  -->
<svg version="1.1" id="Layer_1" xmlns="http://www.w3.org/2000/svg" xmlns:xlink="http://www.w3.org/1999/xlink" x="0px" y="0px"
	 viewBox="0 0 317 66" style="enable-background:new 0 0 317 66;" xml:space="preserve">
<style type="text/css">
	.st0{fill:#858586;}
	.st1{fill:#2C56C2;}
	.st2{fill:#76776E;}
	.st3{fill:#107BF4;}
</style>
<g>
	<g>
		
			<rect x="45.67" y="31.09" transform="matrix(0.874 -0.486 0.486 0.874 -16.8297 28.3119)" class="st0" width="1.01" height="31.04"/>
		
			<rect x="48.19" y="27.4" transform="matrix(0.5261 -0.8504 0.8504 0.5261 -10.2126 59.9606)" class="st0" width="1.01" height="23.49"/>
		
			<rect x="36.78" y="25.97" transform="matrix(0.8377 -0.5462 0.5462 0.8377 -6.5615 30.8736)" class="st0" width="23.76" height="1.01"/>
		
			<rect x="7.6" y="45.25" transform="matrix(0.709 -0.7052 0.7052 0.709 -24.7415 31.537)" class="st0" width="36.49" height="1.01"/>
		
			<rect x="30.59" y="19.33" transform="matrix(0.4476 -0.8942 0.8942 0.4476 7.2785 51.4417)" class="st0" width="29.37" height="1.01"/>
		
			<rect x="31.72" y="5.28" transform="matrix(0.8971 -0.4418 0.4418 0.8971 -5.4288 16.2724)" class="st0" width="1.01" height="29.02"/>
		
			<rect x="28.61" y="14.63" transform="matrix(0.5723 -0.82 0.82 0.5723 -9.0695 35.0937)" class="st0" width="1.01" height="23.22"/>
		
			<rect x="21.81" y="12.24" transform="matrix(0.2219 -0.9751 0.9751 0.2219 -11.0515 44.4284)" class="st0" width="1.01" height="33.79"/>
	</g>
	<g>
		<g>
			<g>
				<path class="st1" d="M187.23,11.96h9.55v17.8h16.82v-17.8h9.67V56.5h-9.55V36.97h-16.94V56.5h-9.55V11.96z"/>
				<path class="st1" d="M241.56,12.09v27.1c0,4.87,0.37,10.96,9.67,10.96c1.54,0,6.16-0.06,8.62-3.88
					c0.92-1.36,1.42-3.08,1.42-7.58V12.09h9.3v27.78c0,13.24-10.53,17.49-19.53,17.49c-4.44,0-12.57-0.99-16.75-7.7
					c-2.16-3.39-2.28-6.84-2.28-10.96V12.09H241.56z"/>
				<path class="st1" d="M279.69,12.03h16.63c2.59,0,7.58,0,10.96,2.09c4.06,2.59,4.99,6.9,4.99,9.49c0,1.66-0.31,4.56-2.59,6.65
					c-0.31,0.37-2.46,2.34-5.05,3.02v0.12c6.78,1.23,9.42,6.16,9.42,10.84c0,5.24-3.08,8.75-6.53,10.47
					c-3.45,1.79-9.49,1.79-11.21,1.79h-16.63V12.03z M288.81,30.14h6.65c2.71,0,7.64,0,7.64-5.73c0-5.54-4.68-5.54-7.82-5.54h-6.47
					V30.14z M288.81,49.35h6.47c4.37,0,9.3,0,9.3-5.98c0-6.34-5.73-6.34-10.29-6.34h-5.48V49.35z"/>
			</g>
		</g>
	</g>
	<g>
		<g>
			<g>
				<path class="st2" d="M84.07,55.73V11.25h25.13v3.7H88.08v15.71h20.39v3.7H88.08v21.38H84.07z"/>
				<path class="st2" d="M121.16,55.73h-3.7V11.25h3.7V55.73z"/>
				<path class="st2" d="M148.57,33.92c-0.37-5.05-2.96-6.65-7.33-6.65c-3.88,0-7.08,1.17-7.58,5.36h-3.94
					c0.92-6.34,5.67-8.75,11.58-8.75c6.84,0,11.09,3.14,10.96,10.23v14.66c-0.06,2.4,0.18,4.87,0.31,6.96h-3.82l-0.12-4.56h-0.12
					l-0.18,0.43c-1.36,2.59-5.48,5.05-9.67,5.05c-5.73,0-10.29-3.51-10.29-9.55c0-4.19,2.53-7.39,6.22-8.93
					c4.13-1.79,9.49-1.17,13.98-1.42V33.92z M139.33,53.26c8.07,0,9.61-6.65,9.24-13.12c-5.24,0.18-16.2-0.8-16.2,6.96
					C132.37,51.29,135.57,53.26,139.33,53.26z"/>
				<path class="st2" d="M164.53,28.19h-6.16V24.8h6.16v-6.59l3.7-1.6v8.19h7.02v3.39h-7.02v20.7c-0.06,2.83,1.42,4.37,4.25,4.37
					c1.11,0,2.22-0.06,3.2-0.37v3.2c-1.17,0.31-2.52,0.55-3.76,0.55c-7.82,0-7.39-4.99-7.39-9.18V28.19z"/>
			</g>
		</g>
	</g>
	<g>
		<circle class="st3" cx="38.55" cy="33.04" r="5.8"/>
		<circle class="st3" cx="12.8" cy="58.54" r="3.57"/>
		<circle class="st3" cx="5.73" cy="25.39" r="3.57"/>
		<circle class="st3" cx="19.49" cy="19.67" r="3.57"/>
		<circle class="st3" cx="25.7" cy="6.77" r="3.57"/>
		<circle class="st3" cx="51.82" cy="6.62" r="3.57"/>
		<circle class="st3" cx="58.61" cy="19.83" r="3.57"/>
		<circle class="st3" cx="58.61" cy="45.32" r="3.57"/>
		<circle class="st3" cx="53.71" cy="60.24" r="3.57"/>
	</g>
</g>
</svg>
