<?xml version="1.0" encoding="utf-8"?>
<!-- Generator: Adobe Illustrator 24.3.0, SVG Export Plug-In . SVG Version: 6.00 Build 0)  -->
<svg version="1.1" id="Layer_1" xmlns="http://www.w3.org/2000/svg" xmlns:xlink="http://www.w3.org/1999/xlink" x="0px" y="0px"
	 width="48px" height="60px" viewBox="0 0 48 60" style="enable-background:new 0 0 48 60;" xml:space="preserve">
<style type="text/css">
	.st0{fill:#2C56C2;stroke:#2C56C2;stroke-miterlimit:10;}
	.st1{fill:#FFFFFF;stroke:#FFFFFF;stroke-width:2.5;stroke-miterlimit:10;}
</style>
<circle class="st0" cx="24" cy="30" r="20.4"/>
<g>
	<path class="st1" d="M24,14.9c0.6,0,1,0.4,1.1,1.1v26.1l8.6-8.6c0.4-0.4,1.1-0.4,1.4,0l0,0c0.4,0.4,0.4,1.1,0,1.4l0,0L26,44.2
		c-1.1,1.1-2.9,1.1-4,0L12.8,35c-0.4-0.4-0.4-1.1,0-1.4l0,0c0.4-0.4,1.1-0.4,1.6,0l8.6,8.6V16.1C23,15.5,23.4,14.9,24,14.9z"/>
</g>
</svg>
